<svg width="14" height="17" viewBox="0 0 14 17" fill="none" xmlns="http://www.w3.org/2000/svg">
<g clip-path="url(#clip0_1_760)">
<path fill-rule="evenodd" clip-rule="evenodd" d="M7.72515 1.79218C8.85362 0.406736 10.4222 0.399902 10.4222 0.399902C10.4222 0.399902 10.6555 1.70255 9.53465 2.95762C8.33763 4.29759 6.97726 4.07838 6.97726 4.07838C6.97726 4.07838 6.72167 3.02438 7.72515 1.79218Z" fill="#C7CBCF"/>
<path fill-rule="evenodd" clip-rule="evenodd" d="M7.1201 4.99185C7.7007 4.99185 8.77781 4.24854 10.1802 4.24854C12.594 4.24854 13.5436 5.84872 13.5436 5.84872C13.5436 5.84872 11.6864 6.73345 11.6864 8.88008C11.6864 11.3016 14.0001 12.1362 14.0001 12.1362C14.0001 12.1362 12.3827 16.3774 10.1983 16.3774C9.19478 16.3774 8.41501 15.7474 7.35764 15.7474C6.28024 15.7474 5.21131 16.4008 4.51504 16.4008C2.5202 16.4011 6.10352e-05 12.378 6.10352e-05 9.14397C6.10352e-05 5.96227 2.13314 4.29322 4.1339 4.29322C5.43474 4.29296 6.44415 4.99185 7.1201 4.99185Z" fill="#C7CBCF"/>
</g>
<defs>
<clipPath id="clip0_1_760">
<rect width="14" height="16" fill="white" transform="translate(6.10352e-05 0.399902)"/>
</clipPath>
</defs>
</svg>
